{
  "accessors": [
    {
      "bufferView": 2,
      "componentType": 5126,
      "count": 19539,
      "max": [
        2.250109910964966,
        0.9547899961471558,
        3.2308599948883057
      ],
      "min": [
        -2.281059980392456,
        -0.9547899961471558,
        -0.0801599994301796
      ],
      "type": "VEC3"
    },
    {
      "bufferView": 2,
      "byteOffset": 234468,
      "componentType": 5126,
      "count": 19539,
      "max": [
        1.0,
        1.0,
        1.0
      ],
      "min": [
        -1.0,
        -1.0,
        -1.0
      ],
      "type": "VEC3"
    },
    {
      "bufferView": 3,
      "componentType": 5126,
      "count": 19539,
      "max": [
        1.0,
        1.0,
        1.0,
        1.0
      ],
      "min": [
        -1.0,
        -1.0,
        -1.0,
        -1.0
      ],
      "type": "VEC4"
    },
    {
      "bufferView": 1,
      "componentType": 5126,
      "count": 19539,
      "max": [
        0.9973499774932861,
        0.9983299970626831
      ],
      "min": [
        0.006020000204443932,
        0.013679999858140945
      ],
      "type": "VEC2"
    },
    {
      "bufferView": 1,
      "byteOffset": 156312,
      "componentType": 5126,
      "count": 19539,
      "max": [
        0.9973499774932861,
        0.9983299970626831
      ],
      "min": [
        0.006020000204443932,
        0.013679999858140945
      ],
      "type": "VEC2"
    },
    {
      "bufferView": 1,
      "byteOffset": 312624,
      "componentType": 5126,
      "count": 19539,
      "max": [
        0.9973499774932861,
        0.9983299970626831
      ],
      "min": [
        0.006020000204443932,
        0.013679999858140945
      ],
      "type": "VEC2"
    },
    {
      "bufferView": 0,
      "componentType": 5125,
      "count": 91944,
      "type": "SCALAR"
    },
    {
      "bufferView": 2,
      "byteOffset": 468936,
      "componentType": 5126,
      "count": 125,
      "max": [
        2.0615100860595703,
        -0.16561999917030334,
        0.6537500023841858
      ],
      "min": [
        1.8825299739837646,
        -0.1675499975681305,
        0.6192399859428406
      ],
      "type": "VEC3"
    },
    {
      "bufferView": 2,
      "byteOffset": 470436,
      "componentType": 5126,
      "count": 125,
      "max": [
        0.7071818113327026,
        -0.7070168256759644,
        0.7071217894554138
      ],
      "min": [
        -0.707196831703186,
        -1.0,
        -0.7071217894554138
      ],
      "type": "VEC3"
    },
    {
      "bufferView": 1,
      "byteOffset": 468936,
      "componentType": 5126,
      "count": 125,
      "max": [
        0.9894999861717224,
        0.28863000869750977
      ],
      "min": [
        0.947700023651123,
        0.27059999108314514
      ],
      "type": "VEC2"
    },
    {
      "bufferView": 1,
      "byteOffset": 469936,
      "componentType": 5126,
      "count": 125,
      "max": [
        0.0,
        0.0
      ],
      "min": [
        0.0,
        0.0
      ],
      "type": "VEC2"
    },
    {
      "bufferView": 0,
      "byteOffset": 367776,
      "componentType": 5125,
      "count": 480,
      "type": "SCALAR"
    },
    {
      "bufferView": 4,
      "componentType": 5126,
      "count": 2,
      "max": [
        0.08332999795675278
      ],
      "min": [
        0.041669998317956924
      ],
      "type": "SCALAR"
    },
    {
      "bufferView": 5,
      "componentType": 5126,
      "count": 2,
      "max": [
        0.0,
        0.0,
        0.008729999884963036,
        1.0
      ],
      "min": [
        0.0,
        0.0,
        0.0,
        0.9999600052833557
      ],
      "type": "VEC4"
    }
  ],
  "animations": [
    {
      "channels": [
        {
          "sampler": 0,
          "target": {
            "node": 7,
            "path": "rotation"
          }
        }
      ],
      "name": "EmptyAction",
      "samplers": [
        {
          "input": 12,
          "interpolation": "LINEAR",
          "output": 13
        }
      ]
    }
  ],
  "asset": {
    "extras": {
      "author": "3DHaupt (https://sketchfab.com/dennish2010)",
      "license": "CC-BY-NC-4.0 (http://creativecommons.org/licenses/by-nc/4.0/)",
      "source": "https://sketchfab.com/3d-models/pc-monitor-qb1DsRh6GJU2intFpbqCjRQMTD5",
      "title": "PC Monitor"
    },
    "generator": "Sketchfab-12.64.0",
    "version": "2.0"
  },
  "bufferViews": [
    {
      "buffer": 0,
      "byteLength": 369696,
      "name": "floatBufferViews",
      "target": 34963
    },
    {
      "buffer": 0,
      "byteLength": 470936,
      "byteOffset": 369696,
      "byteStride": 8,
      "name": "floatBufferViews",
      "target": 34962
    },
    {
      "buffer": 0,
      "byteLength": 471936,
      "byteOffset": 840632,
      "byteStride": 12,
      "name": "floatBufferViews",
      "target": 34962
    },
    {
      "buffer": 0,
      "byteLength": 312624,
      "byteOffset": 1312568,
      "byteStride": 16,
      "name": "floatBufferViews",
      "target": 34962
    },
    {
      "buffer": 0,
      "byteLength": 8,
      "byteOffset": 1625192,
      "name": "floatBufferViews"
    },
    {
      "buffer": 0,
      "byteLength": 32,
      "byteOffset": 1625200,
      "byteStride": 16,
      "name": "floatBufferViews"
    }
  ],
  "buffers": [
    {
      "byteLength": 1625232,
      "uri": "scene.bin"
    }
  ],
  "images": [
    {
      "uri": "textures/Monitor_baseColor.jpeg"
    },
    {
      "uri": "textures/Monitor_normal.png"
    }
  ],
  "materials": [
    {
      "doubleSided": true,
      "name": "Monitor",
      "normalTexture": {
        "index": 1
      },
      "pbrMetallicRoughness": {
        "baseColorTexture": {
          "index": 0
        },
        "metallicFactor": 0.0,
        "roughnessFactor": 0.6
      }
    },
    {
      "doubleSided": true,
      "emissiveFactor": [
        1.0,
        1.0,
        1.0
      ],
      "name": "Monitor_Light",
      "pbrMetallicRoughness": {
        "baseColorFactor": [
          0.0,
          0.04734924502432001,
          0.6400000190400001,
          1.0
        ],
        "metallicFactor": 0.0,
        "roughnessFactor": 0.6
      }
    }
  ],
  "meshes": [
    {
      "name": "Plane.002_0",
      "primitives": [
        {
          "attributes": {
            "NORMAL": 1,
            "POSITION": 0,
            "TANGENT": 2,
            "TEXCOORD_0": 3,
            "TEXCOORD_1": 4,
            "TEXCOORD_2": 5
          },
          "indices": 6,
          "material": 0,
          "mode": 4
        }
      ]
    },
    {
      "name": "Plane.002_1",
      "primitives": [
        {
          "attributes": {
            "NORMAL": 8,
            "POSITION": 7,
            "TEXCOORD_0": 9,
            "TEXCOORD_1": 10
          },
          "indices": 11,
          "material": 1,
          "mode": 4
        }
      ]
    }
  ],
  "nodes": [
    {
      "children": [
        1
      ],
      "matrix": [
        1.0,
        0.0,
        0.0,
        0.0,
        0.0,
        2.220446049250313e-16,
        -1.0,
        0.0,
        0.0,
        1.0,
        2.220446049250313e-16,
        0.0,
        0.0,
        0.0,
        0.0,
        1.0
      ],
      "name": "Sketchfab_model"
    },
    {
      "children": [
        2,
        4,
        7,
        11,
        13
      ],
      "name": "Root"
    },
    {
      "children": [
        3
      ],
      "matrix": [
        0.81808,
        0.11578000000000002,
        -0.56333,
        0.0,
        0.13487,
        0.91358,
        0.38364000000000004,
        0.0,
        0.55906,
        -0.3898200000000001,
        0.7317700000000001,
        0.0,
        9.815000000000001,
        -1.8511,
        8.639909999999999,
        1.0
      ],
      "name": "Hemi"
    },
    {
      "name": "Hemi"
    },
    {
      "children": [
        5,
        6
      ],
      "matrix": [
        1.0,
        0.0,
        0.0,
        0.0,
        0.0,
        1.0,
        0.0,
        0.0,
        0.0,
        0.0,
        1.0,
        0.0,
        0.13702,
        -0.002870000000000001,
        0.13592,
        1.0
      ],
      "name": "Plane.002"
    },
    {
      "mesh": 0,
      "name": "Plane.002_0"
    },
    {
      "mesh": 1,
      "name": "Plane.002_1"
    },
    {
      "children": [
        8
      ],
      "name": "Empty",
      "rotation": [
        0.0,
        0.0,
        -0.008730016648769379,
        0.9999619126319885
      ],
      "scale": [
        3.8616199493408203,
        3.8616199493408203,
        3.8616199493408203
      ],
      "translation": [
        0.13702000677585602,
        -0.0028699999675154686,
        0.13592000305652618
      ]
    },
    {
      "children": [
        9
      ],
      "matrix": [
        0.25896,
        -0.0,
        0.0,
        0.0,
        0.0,
        0.0,
        0.25896,
        0.0,
        -0.0,
        -0.25896,
        0.0,
        0.0,
        0.032420000000000004,
        -2.45002,
        0.47021,
        1.0
      ],
      "name": "Camera"
    },
    {
      "children": [
        10
      ],
      "matrix": [
        0.5446400000000001,
        -0.0,
        0.8386700000000001,
        0.0,
        0.8386700000000001,
        0.0,
        -0.5446400000000001,
        0.0,
        0.0,
        1.0,
        0.0,
        0.0,
        -0.0,
        -0.0,
        -0.0,
        1.0
      ],
      "name": "Point"
    },
    {
      "name": "Point"
    },
    {
      "children": [
        12
      ],
      "matrix": [
        1.0,
        0.0,
        0.0,
        0.0,
        0.0,
        1.0,
        0.0,
        0.0,
        0.0,
        0.0,
        1.0,
        0.0,
        2.10905,
        -0.18953000000000003,
        0.77242,
        1.0
      ],
      "name": "Point.001"
    },
    {
      "name": "Point.001"
    },
    {
      "children": [
        14
      ],
      "matrix": [
        1.0,
        0.0,
        0.0,
        0.0,
        0.0,
        1.0,
        0.0,
        0.0,
        0.0,
        0.0,
        1.0,
        0.0,
        2.10905,
        -0.18953000000000003,
        0.77242,
        1.0
      ],
      "name": "Point.002"
    },
    {
      "name": "Point.002"
    }
  ],
  "samplers": [
    {
      "magFilter": 9729,
      "minFilter": 9987,
      "wrapS": 10497,
      "wrapT": 10497
    }
  ],
  "scene": 0,
  "scenes": [
    {
      "name": "Sketchfab_Scene",
      "nodes": [
        0
      ]
    }
  ],
  "textures": [
    {
      "sampler": 0,
      "source": 0
    },
    {
      "sampler": 0,
      "source": 1
    }
  ]
}
